# xmcd CD database file
#
# Track frame offsets:
#	150
#	19232
#	35594
#	68766
#	86830
#	108126
#	128538
#	158197
#	178052
#	230122
#	258759
#	272948
#
# Disc length: 4330 seconds
#
# Revision: 3
# Processed by: cddbd v1.5.2PL0 Copyright (c) Steve Scherf et al.
# Submitted via: CDex 1.51
#
DISCID=a010e80c
DTITLE=Gary Moore - Live At Montreux - Essential Montreux - CD4 - 1999
DYEAR=1999
DGENRE=Blues
TTITLE0=Walking By Myself (Live)
TTITLE1=Since I Met You Baby (Live)
TTITLE2=Need Your Love So Bad (Live)
TTITLE3=Tore Down (Live)
TTITLE4=You Don't Love Me (Live)
TTITLE5=All Your Love (Live)
TTITLE6=Still Got The Blues (Live)
TTITLE7=Too Tired (Live)
TTITLE8=The Sky Is Crying (Live)
TTITLE9=Further On Up The Road (Live)
TTITLE10=Fire (Live)
TTITLE11=Parisienne Walkways (Live)
EXTD=YEAR: 1999
EXTT0=
EXTT1=
EXTT2=
EXTT3=
EXTT4=
EXTT5=
EXTT6=
EXTT7=
EXTT8=
EXTT9=
EXTT10=
EXTT11=
PLAYORDER=
